<svg width="81" height="59" viewBox="0 0 81 59" fill="none" xmlns="http://www.w3.org/2000/svg">
<path d="M79.4692 50.9949L52.7256 19.4051C51.1974 17.6 48.9051 17.6 47.3769 19.4051L42.0282 25.7231C40.1179 23.9179 37.4435 22.5641 34.7692 22.5641C30.9487 22.5641 27.5102 24.8205 25.5999 27.9795C24.0717 26.6256 22.1615 26.6256 20.6333 28.4308L1.53065 50.9949C0.384499 52.3488 0.00244671 54.1539 0.766551 55.959C1.1486 57.7641 2.67681 58.6667 4.20502 58.6667H42.4102H76.7949C78.3231 58.6667 79.8513 57.7641 80.2333 55.959C80.9975 54.1539 80.6154 52.3488 79.4692 50.9949ZM36.6794 32.041L32.8589 36.5539L31.3307 34.7487C32.0948 32.041 34.7692 30.6872 36.6794 32.041ZM13.3743 49.6411L23.3076 37.9077L24.4538 39.2616L30.1845 46.0308L33.241 49.6411H13.3743ZM43.9384 49.6411L38.2076 42.8718L44.3205 35.6513L50.0513 28.8821L67.6256 49.6411H43.9384Z" fill="#238652"/>
<path d="M20.6332 16.6976C21.3973 17.6001 22.1614 18.0514 23.3075 18.0514C24.4537 18.0514 25.2178 17.6001 25.9819 16.6976C27.5101 14.8924 27.5101 12.1847 25.9819 10.3796L22.1614 5.86679C20.6332 4.06166 18.3409 4.06166 16.8127 5.86679C15.2845 7.67192 15.2845 10.3796 16.8127 12.1847L20.6332 16.6976Z" fill="#238652"/>
<path d="M34.7691 13.5385C37.0614 13.5385 38.5896 11.7333 38.5896 9.02565V4.51283C38.5896 1.80513 37.0614 0 34.7691 0C32.4768 0 30.9486 1.80513 30.9486 4.51283V9.02565C30.9486 11.7333 32.4768 13.5385 34.7691 13.5385Z" fill="#238652"/>
<path d="M46.2307 18.0514C47.3768 18.0514 48.1409 17.6001 48.905 16.6976L52.7256 12.1847C54.2538 10.3796 54.2538 7.67192 52.7256 5.86679C51.1973 4.06166 48.905 4.06166 47.3768 5.86679L43.5563 10.3796C42.0281 12.1847 42.0281 14.8924 43.5563 16.6976C44.3204 17.6001 45.0845 18.0514 46.2307 18.0514Z" fill="#238652"/>
</svg>
