<svg width="81" height="80" viewBox="0 0 81 80" fill="none" xmlns="http://www.w3.org/2000/svg">
<path d="M40.4999 20.0001C45.8026 20.0054 50.8866 22.1142 54.6362 25.8638C58.3858 29.6134 60.4946 34.6974 60.4999 40.0001C60.4999 40.8841 60.1487 41.732 59.5236 42.3571C58.8985 42.9822 58.0506 43.3334 57.1666 43.3334C56.2825 43.3334 55.4347 42.9822 54.8096 42.3571C54.1844 41.732 53.8332 40.8841 53.8332 40.0001C53.8332 36.4639 52.4285 33.0725 49.928 30.572C47.4275 28.0715 44.0361 26.6667 40.4999 26.6667C36.9637 26.6667 33.5723 28.0715 31.0718 30.572C28.5713 33.0725 27.1666 36.4639 27.1666 40.0001C27.1666 40.8841 26.8154 41.732 26.1903 42.3571C25.5652 42.9822 24.7173 43.3334 23.8333 43.3334C22.9492 43.3334 22.1013 42.9822 21.4762 42.3571C20.8511 41.732 20.4999 40.8841 20.4999 40.0001C20.5052 34.6974 22.614 29.6134 26.3636 25.8638C30.1132 22.1142 35.1972 20.0054 40.4999 20.0001ZM43.8332 13.3334V10.0001C43.8332 9.11603 43.4821 8.26818 42.8569 7.64306C42.2318 7.01794 41.384 6.66675 40.4999 6.66675C39.6159 6.66675 38.768 7.01794 38.1429 7.64306C37.5178 8.26818 37.1666 9.11603 37.1666 10.0001V13.3334C37.1666 14.2175 37.5178 15.0653 38.1429 15.6904C38.768 16.3156 39.6159 16.6667 40.4999 16.6667C41.384 16.6667 42.2318 16.3156 42.8569 15.6904C43.4821 15.0653 43.8332 14.2175 43.8332 13.3334ZM61.7132 17.6401L59.3566 20.0001C58.7311 20.6251 58.3796 21.473 58.3792 22.3572C58.3789 23.2415 58.7299 24.0896 59.3549 24.7151C59.9799 25.3406 60.8278 25.6921 61.7121 25.6924C62.5963 25.6927 63.4444 25.3418 64.0699 24.7167L66.4266 22.3601C67.0525 21.7351 67.4045 20.887 67.4051 20.0024C67.4057 19.1179 67.0549 18.2693 66.4299 17.6434C65.8049 17.0175 64.9568 16.6655 64.0723 16.6649C63.1877 16.6643 62.3392 17.0151 61.7132 17.6401ZM63.8332 40.0001C63.8332 40.8841 64.1844 41.732 64.8096 42.3571C65.4347 42.9822 66.2825 43.3334 67.1666 43.3334H70.4999C71.384 43.3334 72.2318 42.9822 72.8569 42.3571C73.4821 41.732 73.8332 40.8841 73.8332 40.0001C73.8332 39.116 73.4821 38.2682 72.8569 37.6431C72.2318 37.0179 71.384 36.6667 70.4999 36.6667H67.1666C66.2825 36.6667 65.4347 37.0179 64.8096 37.6431C64.1844 38.2682 63.8332 39.116 63.8332 40.0001ZM7.16658 40.0001C7.16658 40.8841 7.51777 41.732 8.1429 42.3571C8.76802 42.9822 9.61586 43.3334 10.4999 43.3334H13.8333C14.7173 43.3334 15.5652 42.9822 16.1903 42.3571C16.8154 41.732 17.1666 40.8841 17.1666 40.0001C17.1666 39.116 16.8154 38.2682 16.1903 37.6431C15.5652 37.0179 14.7173 36.6667 13.8333 36.6667H10.4999C9.61586 36.6667 8.76802 37.0179 8.1429 37.6431C7.51777 38.2682 7.16658 39.116 7.16658 40.0001ZM14.5699 17.6434C14.26 17.953 14.0141 18.3206 13.8464 18.7253C13.6786 19.1299 13.5923 19.5637 13.5923 20.0017C13.5923 20.4398 13.6786 20.8736 13.8464 21.2782C14.0141 21.6829 14.26 22.0505 14.5699 22.3601L16.9266 24.7167C17.2363 25.0264 17.604 25.2721 18.0086 25.4397C18.4132 25.6073 18.8469 25.6936 19.2849 25.6936C19.7229 25.6936 20.1566 25.6073 20.5612 25.4397C20.9659 25.2721 21.3335 25.0264 21.6432 24.7167C21.953 24.407 22.1986 24.0394 22.3662 23.6347C22.5338 23.2301 22.6201 22.7964 22.6201 22.3584C22.6201 21.9204 22.5338 21.4867 22.3662 21.0821C22.1986 20.6774 21.953 20.3098 21.6432 20.0001L19.2866 17.6401C18.9768 17.3304 18.609 17.0848 18.2042 16.9173C17.7994 16.7499 17.3656 16.6638 16.9276 16.6641C16.4895 16.6644 16.0558 16.7511 15.6513 16.9191C15.2467 17.0872 14.8793 17.3333 14.5699 17.6434ZM73.8332 46.6667H7.16658C6.28253 46.6667 5.43468 47.0179 4.80956 47.6431C4.18444 48.2682 3.83325 49.116 3.83325 50.0001C3.83325 50.8841 4.18444 51.732 4.80956 52.3571C5.43468 52.9822 6.28253 53.3334 7.16658 53.3334H73.8332C74.7173 53.3334 75.5651 52.9822 76.1903 52.3571C76.8154 51.732 77.1666 50.8841 77.1666 50.0001C77.1666 49.116 76.8154 48.2682 76.1903 47.6431C75.5651 47.0179 74.7173 46.6667 73.8332 46.6667ZM67.1666 60.0001C67.1666 59.116 66.8154 58.2682 66.1903 57.6431C65.5652 57.0179 64.7173 56.6667 63.8332 56.6667H17.1666C16.2825 56.6667 15.4347 57.0179 14.8096 57.6431C14.1844 58.2682 13.8333 59.116 13.8333 60.0001C13.8333 60.8841 14.1844 61.732 14.8096 62.3571C15.4347 62.9822 16.2825 63.3334 17.1666 63.3334H63.8332C64.7173 63.3334 65.5652 62.9822 66.1903 62.3571C66.8154 61.732 67.1666 60.8841 67.1666 60.0001ZM27.1666 66.6667C26.2825 66.6667 25.4347 67.0179 24.8096 67.6431C24.1844 68.2682 23.8333 69.116 23.8333 70.0001C23.8333 70.8841 24.1844 71.732 24.8096 72.3571C25.4347 72.9822 26.2825 73.3334 27.1666 73.3334H53.8332C54.7173 73.3334 55.5652 72.9822 56.1903 72.3571C56.8154 71.732 57.1666 70.8841 57.1666 70.0001C57.1666 69.116 56.8154 68.2682 56.1903 67.6431C55.5652 67.0179 54.7173 66.6667 53.8332 66.6667H27.1666Z" fill="#238652"/>
</svg>
